<svg width="105" height="40" viewBox="0 0 105 40" fill="none" xmlns="http://www.w3.org/2000/svg">
<path fill-rule="evenodd" clip-rule="evenodd" d="M23.3591 30.86C14.9426 32.3508 10.2103 27.1067 9.33892 22.1467C8.47566 17.2314 11.1355 10.6791 19.552 9.18859C23.8269 8.43205 26.8715 10.0518 26.8715 10.0518C26.9077 10.0706 26.9477 10.081 26.9885 10.0821C27.0293 10.0832 27.0699 10.0751 27.1071 10.0583C27.1444 10.0416 27.1774 10.0166 27.2037 9.98528C27.23 9.95396 27.2489 9.91708 27.2591 9.8774L29.3797 2.72427C29.4036 2.63629 29.397 2.54279 29.361 2.45905C29.3251 2.37532 29.2619 2.30628 29.1819 2.26322C29.1819 2.26322 24.7795 -0.259029 16.8083 1.15131C6.38955 2.99554 -1.59007 13.2553 0.270442 23.844C2.1228 34.3894 13.144 41.1931 23.5198 39.3567C31.4909 37.9457 34.767 34.0629 34.767 34.0629C34.8269 33.9947 34.8623 33.9083 34.8674 33.8175C34.8726 33.7267 34.8472 33.6368 34.7953 33.5622L30.3669 27.5685C30.3437 27.5348 30.3133 27.5068 30.2779 27.4865C30.2425 27.4661 30.203 27.4541 30.1623 27.4511C30.1216 27.4482 30.0808 27.4544 30.0429 27.4694C30.0049 27.4844 29.9708 27.5077 29.9431 27.5377C29.9431 27.5377 27.634 30.1048 23.3591 30.86Z" fill="white"/>
<path fill-rule="evenodd" clip-rule="evenodd" d="M23.3591 30.86C14.9426 32.3508 10.2103 27.1067 9.33892 22.1467C8.47566 17.2314 11.1355 10.6791 19.552 9.18859C23.8269 8.43205 26.8715 10.0518 26.8715 10.0518C26.9077 10.0706 26.9477 10.081 26.9885 10.0821C27.0293 10.0832 27.0699 10.0751 27.1071 10.0583C27.1444 10.0416 27.1774 10.0166 27.2037 9.98528C27.23 9.95396 27.2489 9.91708 27.2591 9.8774L29.3797 2.72427C29.4036 2.63629 29.397 2.54279 29.361 2.45905C29.3251 2.37532 29.2619 2.30628 29.1819 2.26322C29.1819 2.26322 24.7795 -0.259029 16.8083 1.15131C6.38955 2.99554 -1.59007 13.2553 0.270442 23.844C2.1228 34.3894 13.144 41.1931 23.5198 39.3567C31.4909 37.9457 34.767 34.0629 34.767 34.0629C34.8269 33.9947 34.8623 33.9083 34.8674 33.8175C34.8726 33.7267 34.8472 33.6368 34.7953 33.5622L30.3669 27.5685C30.3437 27.5348 30.3133 27.5068 30.2779 27.4865C30.2425 27.4661 30.203 27.4541 30.1623 27.4511C30.1216 27.4482 30.0808 27.4544 30.0429 27.4694C30.0049 27.4844 29.9708 27.5077 29.9431 27.5377C29.9431 27.5377 27.634 30.1048 23.3591 30.86Z" fill="white"/>
<path fill-rule="evenodd" clip-rule="evenodd" d="M23.3591 30.86C14.9426 32.3508 10.2103 27.1067 9.33892 22.1467C8.47566 17.2314 11.1355 10.6791 19.552 9.18859C23.8269 8.43205 26.8715 10.0518 26.8715 10.0518C26.9077 10.0706 26.9477 10.081 26.9885 10.0821C27.0293 10.0832 27.0699 10.0751 27.1071 10.0583C27.1444 10.0416 27.1774 10.0166 27.2037 9.98528C27.23 9.95396 27.2489 9.91708 27.2591 9.8774L29.3797 2.72427C29.4036 2.63629 29.397 2.54279 29.361 2.45905C29.3251 2.37532 29.2619 2.30628 29.1819 2.26322C29.1819 2.26322 24.7795 -0.259029 16.8083 1.15131C6.38955 2.99554 -1.59007 13.2553 0.270442 23.844C2.1228 34.3894 13.144 41.1931 23.5198 39.3567C31.4909 37.9457 34.767 34.0629 34.767 34.0629C34.8269 33.9947 34.8623 33.9083 34.8674 33.8175C34.8726 33.7267 34.8472 33.6368 34.7953 33.5622L30.3669 27.5685C30.3437 27.5348 30.3133 27.5068 30.2779 27.4865C30.2425 27.4661 30.203 27.4541 30.1623 27.4511C30.1216 27.4482 30.0808 27.4544 30.0429 27.4694C30.0049 27.4844 29.9708 27.5077 29.9431 27.5377C29.9431 27.5377 27.634 30.1048 23.3591 30.86Z" fill="white"/>
<path fill-rule="evenodd" clip-rule="evenodd" d="M23.3591 30.86C14.9426 32.3508 10.2103 27.1067 9.33892 22.1467C8.47566 17.2314 11.1355 10.6791 19.552 9.18859C23.8269 8.43205 26.8715 10.0518 26.8715 10.0518C26.9077 10.0706 26.9477 10.081 26.9885 10.0821C27.0293 10.0832 27.0699 10.0751 27.1071 10.0583C27.1444 10.0416 27.1774 10.0166 27.2037 9.98528C27.23 9.95396 27.2489 9.91708 27.2591 9.8774L29.3797 2.72427C29.4036 2.63629 29.397 2.54279 29.361 2.45905C29.3251 2.37532 29.2619 2.30628 29.1819 2.26322C29.1819 2.26322 24.7795 -0.259029 16.8083 1.15131C6.38955 2.99554 -1.59007 13.2553 0.270442 23.844C2.1228 34.3894 13.144 41.1931 23.5198 39.3567C31.4909 37.9457 34.767 34.0629 34.767 34.0629C34.8269 33.9947 34.8623 33.9083 34.8674 33.8175C34.8726 33.7267 34.8472 33.6368 34.7953 33.5622L30.3669 27.5685C30.3437 27.5348 30.3133 27.5068 30.2779 27.4865C30.2425 27.4661 30.203 27.4541 30.1623 27.4511C30.1216 27.4482 30.0808 27.4544 30.0429 27.4694C30.0049 27.4844 29.9708 27.5077 29.9431 27.5377C29.9431 27.5377 27.634 30.1048 23.3591 30.86Z" fill="white"/>
<path fill-rule="evenodd" clip-rule="evenodd" d="M23.3591 30.86C14.9426 32.3508 10.2103 27.1067 9.33892 22.1467C8.47566 17.2314 11.1355 10.6791 19.552 9.18859C23.8269 8.43205 26.8715 10.0518 26.8715 10.0518C26.9077 10.0706 26.9477 10.081 26.9885 10.0821C27.0293 10.0832 27.0699 10.0751 27.1071 10.0583C27.1444 10.0416 27.1774 10.0166 27.2037 9.98528C27.23 9.95396 27.2489 9.91708 27.2591 9.8774L29.3797 2.72427C29.4036 2.63629 29.397 2.54279 29.361 2.45905C29.3251 2.37532 29.2619 2.30628 29.1819 2.26322C29.1819 2.26322 24.7795 -0.259029 16.8083 1.15131C6.38955 2.99554 -1.59007 13.2553 0.270442 23.844C2.1228 34.3894 13.144 41.1931 23.5198 39.3567C31.4909 37.9457 34.767 34.0629 34.767 34.0629C34.8269 33.9947 34.8623 33.9083 34.8674 33.8175C34.8726 33.7267 34.8472 33.6368 34.7953 33.5622L30.3669 27.5685C30.3437 27.5348 30.3133 27.5068 30.2779 27.4865C30.2425 27.4661 30.203 27.4541 30.1623 27.4511C30.1216 27.4482 30.0808 27.4544 30.0429 27.4694C30.0049 27.4844 29.9708 27.5077 29.9431 27.5377C29.9431 27.5377 27.634 30.1048 23.3591 30.86Z" fill="white"/>
<path d="M2.68676 8.58013C2.6923 8.61286 2.75196 8.56116 2.84976 8.44205C2.73924 8.51567 2.68382 8.56443 2.68676 8.58013Z" fill="#61B8F5"/>
<path d="M22.5227 34.9095C26.8638 36.4975 30.4684 36.4608 31.8256 36.3705C33.856 35.1428 34.7681 34.0629 34.7681 34.0629C34.8281 33.9947 34.8634 33.9083 34.8686 33.8175C34.8737 33.7267 34.8483 33.6369 34.7965 33.5623L30.3664 27.5685C30.3432 27.5348 30.3128 27.5068 30.2774 27.4865C30.242 27.4662 30.2025 27.4541 30.1619 27.4512C30.1212 27.4482 30.0804 27.4545 30.0424 27.4695C30.0045 27.4844 29.9704 27.5078 29.9426 27.5378C29.9426 27.5378 27.6335 30.1048 23.3573 30.8614C20.14 31.4307 17.4615 31.0161 15.3307 30.0106C17.2833 32.2203 19.7558 33.9044 22.5227 34.9095Z" fill="#0E73B9"/>
<path d="M10.4225 25.2899C10.4335 29.2542 10.6777 35.2254 11.9397 37.9705C15.5332 39.5032 19.5737 40.0552 23.521 39.3566C27.2886 38.6897 30.0085 37.4705 31.8273 36.3703C30.4701 36.4607 26.8655 36.4973 22.5244 34.9093C19.7577 33.9036 17.2858 32.2191 15.3337 30.0091C13.0787 28.9443 11.4376 27.2163 10.4225 25.2899Z" fill="#1894EA"/>
<path d="M9.33954 22.1475C8.8564 19.3972 9.47679 16.1341 11.5913 13.5323C8.50921 14.5061 3.96959 17.1465 1.59791 21.2172C1.17342 21.9536 0.703264 22.6626 0.190216 23.3399C0.214775 23.5081 0.241725 23.6764 0.271065 23.8448C1.4186 30.3785 6.08634 35.4747 11.9391 37.9714C10.6771 35.2263 10.433 29.2551 10.4219 25.2908C9.9008 24.3057 9.53565 23.2453 9.33954 22.1475Z" fill="#3AA5F0"/>
<path d="M11.5903 13.5311C13.2529 11.4833 15.8446 9.84491 19.5516 9.18883C22.8583 8.60375 25.4285 9.44013 26.4232 9.84916C24.9438 9.00656 21.0324 7.07659 15.1985 6.36553C11.1352 5.87044 7.8158 6.50657 5.61918 7.22319C1.57117 11.4552 -0.692278 17.322 0.189239 23.3387C0.702287 22.6614 1.17244 21.9524 1.59693 21.216C3.96861 17.1453 8.50823 14.5049 11.5903 13.5311Z" fill="#5FB5F1"/>
<path d="M15.1992 6.36578C21.0331 7.07684 24.9445 9.00681 26.4239 9.84941C26.715 9.96885 26.8718 10.0523 26.8718 10.0523C26.9081 10.0711 26.9481 10.0814 26.9889 10.0826C27.0297 10.0837 27.0702 10.0756 27.1075 10.0588C27.1447 10.0421 27.1777 10.0171 27.204 9.98577C27.2303 9.95444 27.2493 9.91757 27.2594 9.87788L29.3801 2.72476C29.4039 2.63677 29.3973 2.54328 29.3614 2.45954C29.3254 2.3758 29.2623 2.30676 29.1822 2.2637C29.1822 2.2637 24.7798 -0.259201 16.8087 1.15114C12.4813 1.91717 8.57413 4.13411 5.61987 7.22344C7.81649 6.50682 11.1359 5.87069 15.1992 6.36578Z" fill="#A1D5FA"/>
<path fill-rule="evenodd" clip-rule="evenodd" d="M97.5542 15.0435C92.0008 15.0435 88.3396 17.6151 88.3396 22.1153C88.3396 25.4155 90.4787 26.9584 92.6178 28.1156C95.0038 29.4014 97.3074 29.53 97.3074 31.1158C97.3074 32.573 96.0733 32.7016 95.0449 32.7016C93.0843 32.7016 90.7497 30.9336 90.0374 30.3543C90.0207 30.3407 89.8176 30.1729 89.6834 30.413C88.9333 31.7556 87.5505 34.1587 87.0478 35.031C86.9971 35.119 86.8146 35.3589 87.1055 35.5754C87.9501 36.2041 90.7487 38.3161 95.0038 38.3161C99.3231 38.3161 105 37.2875 105 30.8158C105 26.3155 101.38 24.6869 98.5827 23.7868C96.7726 23.1868 95.2917 22.8439 95.2917 21.6867C95.2917 20.6581 95.9499 20.3581 97.5542 20.3581C99.2586 20.3581 100.983 21.1187 101.724 21.485C101.816 21.5305 102.159 21.7725 102.364 21.4724C103.186 20.2735 104.152 17.7539 104.52 16.9873C104.552 16.9198 104.586 16.7579 104.445 16.6594C103.771 16.1889 101.034 15.0435 97.5542 15.0435Z" fill="#61B8F5"/>
<path fill-rule="evenodd" clip-rule="evenodd" d="M39.1817 16.5439C39.1817 16.0707 39.5503 15.687 40.0046 15.687H45.64C46.0945 15.687 46.4629 16.071 46.4629 16.5439V36.817C46.4629 37.2902 46.0943 37.6738 45.64 37.6738H40.0046C39.5501 37.6738 39.1817 37.2899 39.1817 36.817V16.5439Z" fill="#1998F0"/>
<path fill-rule="evenodd" clip-rule="evenodd" d="M42.9229 3.10156C45.3088 3.10156 47.2422 5.11595 47.2422 7.60179C47.2422 10.0876 45.3088 12.102 42.9229 12.102C40.5369 12.102 38.6035 10.0876 38.6035 7.60179C38.6035 5.11595 40.5369 3.10156 42.9229 3.10156Z" fill="#1998F0"/>
<path fill-rule="evenodd" clip-rule="evenodd" d="M57.5265 17.4505C57.1177 16.4999 55.9756 15.7293 54.9767 15.7293H49.9573C48.9578 15.7293 48.5305 16.4734 49.0026 17.3909L59.0716 36.9609C59.2863 37.378 59.8292 37.7161 60.2837 37.7161H63.5732C64.028 37.7161 64.5709 37.3774 64.7852 36.9609L74.8543 17.3909C75.3265 16.4732 74.8985 15.7293 73.8996 15.7293H68.8802C67.8807 15.7293 66.7391 16.5001 66.3304 17.4505L61.9284 27.6871L57.5265 17.4505Z" fill="#31A3F2"/>
<path fill-rule="evenodd" clip-rule="evenodd" d="M61.7612 27.3013L61.9258 27.6871L61.4733 28.5442L61.7612 27.3013Z" fill="#269AED"/>
<path fill-rule="evenodd" clip-rule="evenodd" d="M77 17.8184C77 17.3664 77.405 17 77.9041 17H84.0959C84.5952 17 85 17.3667 85 17.8184V37.1816C85 37.6336 84.595 38 84.0959 38H77.9041C77.4048 38 77 37.6333 77 37.1816V17.8184Z" fill="#49ADF3"/>
<path fill-rule="evenodd" clip-rule="evenodd" d="M81.1006 4.10156C83.4865 4.10156 85.42 6.11595 85.42 8.60179C85.42 11.0876 83.4865 13.102 81.1006 13.102C78.7147 13.102 76.7812 11.0876 76.7812 8.60179C76.7812 6.11595 78.7147 4.10156 81.1006 4.10156Z" fill="#49ADF3"/>
</svg>
